<?xml version="1.0" standalone="no"?>
<!DOCTYPE svg PUBLIC "-//W3C//DTD SVG 20010904//EN"
 "http://www.w3.org/TR/2001/REC-SVG-20010904/DTD/svg10.dtd">
<svg version="1.0" xmlns="http://www.w3.org/2000/svg"
 width="1180.000000pt" height="1180.000000pt" viewBox="0 0 1180.000000 1180.000000"
 preserveAspectRatio="xMidYMid meet">
<metadata>
Created by potrace 1.11, written by Peter Selinger 2001-2013
</metadata>
<g transform="translate(0.000000,1180.000000) scale(0.100000,-0.100000)"
fill="#000000" stroke="none">
<path d="M7273 11748 c-198 -187 -412 -473 -574 -769 -35 -63 -64 -116 -65
-118 -2 -2 -16 6 -32 17 -177 126 -496 263 -752 323 -155 36 -213 37 -243 7
-50 -51 -177 -420 -221 -642 -66 -330 -74 -515 -43 -942 2 -17 -26 -35 -165
-106 -342 -177 -601 -364 -866 -628 -133 -133 -234 -249 -437 -500 -333 -414
-497 -577 -735 -733 -200 -130 -462 -244 -706 -306 -268 -68 -649 -97 -948
-70 -135 12 -167 4 -191 -42 -23 -44 -19 -61 45 -189 309 -616 723 -1065 1224
-1326 349 -181 638 -243 1138 -244 l196 0 94 -72 c123 -94 366 -339 456 -460
207 -277 324 -535 363 -799 18 -125 7 -314 -25 -424 -104 -358 -421 -707 -900
-992 -132 -78 -365 -196 -501 -253 -55 -22 -117 -49 -138 -57 -81 -35 -89
-146 -12 -181 39 -18 52 -16 164 28 347 135 738 363 1002 583 285 238 466 486
558 762 51 154 65 261 58 440 -9 201 -56 389 -148 584 -21 46 -39 86 -39 89 0
9 279 -7 410 -23 1029 -128 1843 -643 2352 -1488 226 -375 378 -795 457 -1257
19 -111 19 -114 0 -264 -46 -361 -128 -764 -210 -1043 -29 -99 -30 -103 -14
-137 21 -44 75 -72 114 -58 83 29 313 192 546 386 754 630 1265 1321 1621
2192 455 1113 535 2324 228 3434 -209 754 -566 1429 -1085 2051 -108 130 -423
454 -531 549 l-63 54 0 291 c0 255 -3 307 -23 435 -99 618 -369 1147 -812
1591 -209 210 -401 359 -463 359 -20 0 -44 -14 -84 -52z m202 -258 c99 -80
300 -280 381 -380 138 -170 251 -349 348 -551 84 -174 129 -298 176 -483 68
-267 75 -330 75 -704 l0 -334 50 -45 c298 -273 474 -455 653 -676 1074 -1326
1421 -2998 961 -4629 -154 -548 -398 -1079 -705 -1533 -92 -138 -191 -270
-181 -245 3 8 30 78 60 155 117 296 197 614 232 920 19 162 21 520 5 665 -63
566 -263 1059 -606 1490 -95 120 -360 380 -484 476 -583 451 -1279 724 -2100
826 -64 8 -214 13 -380 13 -232 0 -328 -5 -610 -32 -599 -58 -909 -77 -1498
-95 -568 -17 -823 -1 -1093 67 -109 27 -199 57 -277 91 l-53 23 30 53 c70 127
148 360 187 559 l16 86 102 38 c131 48 317 139 431 210 285 179 482 370 840
815 196 245 246 302 389 448 266 272 530 463 876 637 314 157 704 280 1065
336 87 13 129 30 144 57 5 9 14 53 21 97 71 493 274 992 566 1391 117 160 273
337 288 326 6 -5 47 -37 91 -72z m-1561 -512 c221 -65 451 -175 628 -299 4 -3
-15 -68 -43 -145 -54 -149 -129 -428 -150 -559 -7 -44 -13 -81 -14 -82 -1 -1
-50 -12 -111 -23 -172 -33 -374 -86 -533 -139 -80 -27 -147 -48 -149 -46 -1 1
-7 69 -13 151 -23 349 42 768 173 1107 l30 78 42 -7 c22 -3 85 -20 140 -36z
m-3474 -3847 c0 -26 -53 -210 -85 -296 -40 -107 -101 -235 -112 -235 -12 0
-226 137 -298 190 -92 69 -219 177 -275 234 l-44 46 143 0 c174 0 334 14 506
44 155 28 165 29 165 17z m-522 -570 c243 -165 509 -287 776 -355 294 -76 565
-94 1156 -77 595 17 901 36 1500 93 414 40 789 45 1025 15 579 -75 1139 -265
1600 -543 841 -507 1312 -1268 1365 -2202 49 -863 -311 -1811 -920 -2422 -107
-107 -316 -278 -327 -267 -2 3 11 77 31 164 131 582 194 1218 167 1687 -33
568 -127 966 -321 1361 -235 478 -570 808 -1095 1081 -433 224 -1026 401
-1660 493 -505 74 -608 81 -1285 91 -597 9 -652 13 -837 55 -152 35 -357 116
-494 195 -209 122 -363 243 -539 426 -109 113 -219 244 -205 244 3 0 32 -17
63 -39z m2757 -1112 c1100 -106 1953 -372 2491 -775 519 -390 816 -976 899
-1776 26 -252 24 -256 -44 -88 -178 443 -433 832 -756 1155 -247 247 -522 443
-840 600 -477 235 -948 348 -1544 371 l-178 7 -24 36 c-65 96 -195 249 -311
365 l-128 129 167 -7 c93 -4 213 -11 268 -17z"/>
<path d="M5211 8279 c-133 -89 -265 -243 -348 -408 -46 -90 -48 -96 -48 -180
0 -79 3 -92 28 -129 64 -98 221 -132 449 -97 383 58 717 215 974 459 97 92
111 126 75 183 -16 25 -34 36 -88 53 -298 93 -681 160 -909 160 -67 0 -75 -2
-133 -41z m398 -185 c121 -16 380 -66 419 -81 23 -9 22 -11 -30 -49 -85 -65
-215 -139 -322 -184 -189 -81 -483 -139 -602 -120 -31 5 -59 12 -62 14 -12 13
26 105 71 175 70 107 112 156 187 218 l65 54 80 -6 c44 -3 131 -13 194 -21z"/>
<path d="M6535 1853 c-167 -22 -321 -127 -382 -260 -49 -106 -53 -153 -53
-663 0 -523 4 -562 60 -677 37 -74 125 -160 204 -197 146 -69 340 -75 498 -16
159 59 276 214 295 390 8 84 1 90 -106 90 -95 0 -111 -7 -111 -52 0 -47 -41
-140 -82 -184 -53 -58 -124 -84 -227 -84 -138 0 -225 49 -278 158 l-28 57 0
510 0 510 26 55 c31 67 79 116 139 144 36 17 65 21 145 21 89 0 105 -3 150
-27 86 -45 141 -124 152 -219 3 -27 11 -54 18 -59 8 -6 52 -10 106 -8 l94 3
-1 75 c-3 168 -117 328 -281 395 -95 38 -225 53 -338 38z"/>
<path d="M3060 1830 c-11 -7 -15 -30 -15 -95 0 -65 4 -88 15 -95 8 -5 114 -10
236 -10 173 0 224 -3 233 -13 8 -10 12 -239 13 -798 l3 -784 105 0 105 0 3
784 c1 559 5 788 13 798 9 10 60 13 235 13 265 0 254 -4 254 105 0 54 -4 78
-16 89 -14 14 -81 16 -592 16 -346 0 -583 -4 -592 -10z"/>
<path d="M4542 1828 c-16 -16 -16 -170 0 -186 9 -9 76 -12 239 -12 178 0 229
-3 238 -13 8 -10 12 -239 13 -798 l3 -784 105 0 105 0 5 795 5 795 238 5 c197
4 239 8 247 20 17 26 12 156 -6 174 -14 14 -82 16 -598 16 -439 0 -585 -3
-594 -12z"/>
</g>
</svg>
